<svg width="260" height="260" viewBox="0 0 260 260" fill="none" xmlns="http://www.w3.org/2000/svg">
<g id="favicon">
<path id="purple" d="M136.291 207.969V90.2745H185.332V208.185C185.332 223.247 180.688 236.054 171.63 245.102C162.569 254.152 149.53 259 133.595 259C122.46 259 111.076 257.02 103.088 252.427L100.194 250.763L113.35 213.808L117.568 216.442C120.338 218.171 124.129 219.286 128.194 219.286C130.825 219.286 132.639 218.447 133.869 217C135.178 215.461 136.291 212.687 136.291 207.969ZM181.868 58.8937C181.868 53.8956 179.881 49.7255 176.407 46.7482C172.89 43.7339 167.606 41.7511 160.811 41.7511C147.467 41.7511 139.755 49.863 139.755 59.5411C139.755 69.2191 147.467 77.3302 160.811 77.3302C167.532 77.3302 172.785 75.23 176.313 72.0109C179.82 68.8116 181.868 64.2927 181.868 58.8937ZM144.291 207.969C144.291 213.822 142.92 218.707 139.963 222.184C136.927 225.753 132.692 227.286 128.194 227.286C124.53 227.286 120.938 226.617 117.718 225.39L110.039 246.96C116.217 249.61 124.657 251 133.595 251C147.9 251 158.729 246.68 165.977 239.442C173.226 232.201 177.332 221.6 177.332 208.185V98.2745H144.291V207.969ZM189.868 58.8937C189.868 66.4388 186.948 73.138 181.706 77.921C176.486 82.6842 169.211 85.3302 160.811 85.3302C143.916 85.3302 131.755 74.457 131.755 59.5411C131.755 44.625 143.915 33.7511 160.811 33.7511C169.137 33.7511 176.381 36.1914 181.612 40.674C186.886 45.1936 189.868 51.5947 189.868 58.8937Z" fill="#5D21D0"/>
<path id="green" d="M104.632 175.218V57.5234H153.673V175.434C153.673 190.496 149.029 203.303 139.97 212.351C130.909 221.4 117.871 226.249 101.935 226.249C90.8003 226.249 79.4163 224.269 71.4285 219.676L68.5349 218.012L81.6902 181.057L85.9089 183.69C88.679 185.42 92.4698 186.535 96.5349 186.535C99.1656 186.535 100.979 185.696 102.21 184.249C103.518 182.71 104.632 179.936 104.632 175.218ZM150.209 26.1426C150.209 21.1445 148.222 16.9744 144.748 13.9971C141.23 10.9828 135.947 9.00002 129.152 9C115.807 9 108.095 17.1119 108.095 26.79C108.096 36.468 115.808 44.5791 129.152 44.5791C135.873 44.5791 141.126 42.4789 144.654 39.2598C148.16 36.0605 150.209 31.5416 150.209 26.1426ZM112.632 175.218C112.632 181.071 111.261 185.956 108.303 189.433C105.268 193.002 101.032 194.535 96.5349 194.535C92.871 194.535 89.2791 193.865 86.0583 192.639L78.3796 214.209C84.5581 216.859 92.9981 218.249 101.935 218.249C116.24 218.249 127.07 213.928 134.317 206.69C141.567 199.45 145.673 188.849 145.673 175.434V65.5234H112.632V175.218ZM158.209 26.1426C158.209 33.6877 155.289 40.3869 150.047 45.1699C144.826 49.9331 137.551 52.5791 129.152 52.5791C112.256 52.5791 100.096 41.7059 100.095 26.79C100.095 11.8739 112.256 1 129.152 1C137.478 1.00002 144.722 3.44031 149.953 7.92285C155.227 12.4425 158.209 18.8436 158.209 26.1426Z" fill="#01F9C6"/>
<path id="j" class="a" fill-rule="evenodd" clip-rule="evenodd" d="M170.786 42.1424C170.786 55.0867 160.85 64.5792 145.729 64.5792C130.609 64.5792 120.673 55.0867 120.673 42.7896C120.673 30.4925 130.609 21 145.729 21C160.85 21 170.786 29.8453 170.786 42.1424ZM166.25 191.434C166.25 219.911 148.753 238.249 118.513 238.249C107.712 238.249 97.1282 236.307 90 232.208L100.368 203.083C103.824 205.241 108.36 206.535 113.113 206.535C120.241 206.535 125.209 201.789 125.209 191.218V77.5235H166.25V191.434Z" fill="black"/>
</g>
</svg>
