<?xml version="1.0" standalone="no"?>
<!DOCTYPE svg PUBLIC "-//W3C//DTD SVG 20010904//EN"
 "http://www.w3.org/TR/2001/REC-SVG-20010904/DTD/svg10.dtd">
<svg version="1.0" xmlns="http://www.w3.org/2000/svg"
 width="520.000000pt" height="520.000000pt" viewBox="0 0 520.000000 520.000000"
 preserveAspectRatio="xMidYMid meet">
<metadata>
Created by potrace 1.11, written by Peter Selinger 2001-2013
</metadata>
<g transform="translate(0.000000,520.000000) scale(0.100000,-0.100000)"
fill="#000000" stroke="none">
<path d="M326 5169 c-146 -35 -268 -164 -296 -314 -8 -43 -10 -685 -8 -2296
l3 -2235 38 -76 c58 -119 158 -196 281 -219 32 -6 894 -8 2292 -7 l2239 3 69
34 c83 41 130 80 171 146 70 111 65 -97 62 2415 -1 1742 -5 2270 -14 2285 -7
11 -20 37 -29 58 -28 64 -111 142 -189 179 l-70 33 -2255 2 c-1332 0 -2271 -3
-2294 -8z m4022 -844 c0 -274 0 -275 -22 -276 -11 0 -82 -1 -156 -3 -213 -5
-274 -31 -301 -128 -7 -26 -11 -401 -13 -1126 -1 -598 -5 -1098 -9 -1112 -3
-14 -8 -52 -12 -85 -3 -33 -11 -80 -17 -105 -5 -25 -12 -55 -14 -67 -7 -38
-55 -166 -78 -208 -82 -154 -248 -311 -436 -412 -112 -61 -326 -135 -455 -158
-178 -31 -268 -39 -465 -39 -242 -1 -344 7 -490 40 -36 8 -83 19 -105 24 -22
5 -80 23 -130 40 -344 120 -595 336 -710 610 -28 66 -50 134 -45 142 1 2 -4
16 -10 32 -6 16 -13 81 -16 145 -15 307 93 566 306 733 72 57 180 105 300 135
47 12 262 10 320 -3 155 -33 276 -125 339 -258 22 -44 42 -100 46 -124 44
-278 -56 -510 -265 -611 l-75 -36 -142 0 c-79 0 -143 -1 -143 -3 0 -11 65 -95
110 -140 93 -94 202 -132 368 -128 140 4 237 35 343 108 125 86 181 201 193
393 7 105 7 2128 1 2179 -8 55 -43 113 -80 130 -50 24 -130 32 -298 32 l-157
-1 0 278 0 277 1160 0 1159 0 -1 -275z"/>
</g>
</svg>
