<?xml version="1.0" standalone="no"?>
<!DOCTYPE svg PUBLIC "-//W3C//DTD SVG 20010904//EN"
 "http://www.w3.org/TR/2001/REC-SVG-20010904/DTD/svg10.dtd">
<svg version="1.0" xmlns="http://www.w3.org/2000/svg"
 width="700.000000pt" height="700.000000pt" viewBox="0 0 700.000000 700.000000"
 preserveAspectRatio="xMidYMid meet">
<metadata>
Created by potrace 1.11, written by Peter Selinger 2001-2013
</metadata>
<g transform="translate(0.000000,700.000000) scale(0.100000,-0.100000)"
fill="#000000" stroke="none">
<path d="M3488 6935 c-2 -2 -34 -5 -73 -6 -104 -4 -219 -34 -325 -86 -392
-194 -477 -703 -167 -1009 82 -80 169 -132 275 -166 l73 -22 35 -66 c19 -36
54 -87 78 -115 l45 -50 -285 -3 -284 -2 -1 -28 c0 -15 -1 -742 -2 -1617 -2
-1535 -3 -1592 -21 -1648 -25 -76 -89 -149 -146 -166 -101 -30 -274 0 -392 68
-84 49 -74 57 -129 -99 -33 -94 -135 -380 -233 -654 -20 -55 -36 -104 -36
-110 0 -15 97 -68 181 -99 112 -42 201 -64 380 -92 l37 -5 -39 -106 c-22 -58
-36 -110 -33 -115 18 -29 208 -97 349 -124 44 -9 81 -18 84 -20 2 -2 -22 -77
-54 -165 -32 -88 -56 -162 -54 -164 2 -2 29 -18 60 -35 98 -55 291 -117 419
-135 19 -2 55 -7 80 -11 25 -3 65 -8 90 -10 56 -5 323 -5 370 0 131 13 260 41
378 81 329 113 584 362 708 690 24 65 63 207 70 258 2 17 7 42 11 56 4 14 9
778 10 1698 l4 1672 -241 0 -240 0 0 110 0 109 38 10 c20 5 57 15 82 21 222
58 411 253 464 480 23 96 16 266 -13 350 -56 160 -164 278 -329 360 -31 15
-75 33 -97 39 -36 10 -43 17 -78 84 -62 121 -135 192 -264 256 -56 28 -61 33
-67 71 -16 100 -85 229 -166 308 -114 111 -281 183 -464 198 -33 3 -66 7 -73
9 -6 2 -13 2 -15 0z m183 -160 c125 -33 210 -79 285 -154 43 -43 96 -134 108
-184 6 -25 4 -27 -17 -22 -105 27 -395 -10 -454 -58 -7 -5 -13 -7 -13 -3 0 9
-113 -65 -153 -101 -108 -95 -177 -244 -182 -392 -1 -31 -7 -57 -13 -59 -6 -2
-42 11 -79 29 -135 66 -246 208 -273 348 -30 159 17 327 123 440 72 76 198
140 327 166 83 16 259 11 341 -10z m975 -923 c132 -60 215 -147 264 -277 26
-70 32 -233 11 -300 -42 -132 -134 -251 -236 -309 -72 -40 -192 -78 -218 -70
-12 4 -97 8 -189 8 -91 1 -170 4 -174 9 -9 9 -9 340 0 356 4 6 16 11 26 11 71
0 241 99 318 186 82 91 142 239 142 346 0 38 5 58 16 58 1 0 19 -8 40 -18z
m-1031 -637 c24 -86 69 -166 136 -239 33 -35 59 -66 59 -68 0 -3 -96 -4 -212
-4 -117 1 -217 0 -223 -1 -7 -2 -10 -531 -10 -1561 1 -856 -3 -1581 -7 -1609
-20 -129 -85 -230 -175 -274 -98 -47 -304 -30 -435 36 -28 14 -52 24 -53 23
-1 -2 -19 -50 -39 -108 -105 -302 -111 -315 -137 -313 -119 7 -296 47 -397 89
-49 21 -62 30 -57 43 35 90 215 601 215 609 0 22 21 22 106 -3 101 -29 244
-38 314 -20 156 41 261 172 284 355 4 25 6 734 7 1576 l0 1530 303 0 304 0 17
-61z m255 39 c47 -4 87 -8 89 -10 3 -3 5 -184 2 -241 -1 -13 -6 -23 -12 -23
-7 0 -42 30 -78 68 -62 61 -107 134 -126 201 -7 21 -5 23 16 17 13 -3 62 -9
109 -12z m942 -874 c7 -28 1 -3135 -6 -3170 -3 -19 -13 -72 -21 -117 -82 -446
-381 -752 -835 -853 -194 -43 -457 -47 -700 -10 -85 13 -233 53 -292 80 l-47
21 20 52 c12 29 26 67 31 85 5 19 18 53 28 76 l18 42 53 -6 c65 -6 218 -4 303
5 324 34 574 143 765 333 167 165 260 352 319 632 13 65 16 256 19 1455 2 771
7 1382 12 1385 5 3 81 5 170 5 135 0 160 -2 163 -15z"/>
</g>
</svg>
