<svg width="32" height="32" viewBox="0 0 32 32" fill="none" xmlns="http://www.w3.org/2000/svg">
<path d="M13 11.6596V20.3255C13 20.6278 12.8225 20.8293 12.5385 20.9301C12.2544 21.0645 12.0059 20.9973 11.7929 20.7957L7.21302 16.4628C7.07101 16.3284 7 16.1941 7 15.9926C7 15.8246 7.07101 15.6567 7.21302 15.5223L11.7929 11.1894C12.0059 10.9878 12.2544 10.9543 12.5385 11.055C12.8225 11.1894 13 11.3909 13 11.6596Z" fill="white"/>
<path d="M19 11.6596V20.3255C19 20.6278 19.1775 20.8293 19.4615 20.9301C19.7456 21.0645 19.9941 20.9973 20.2071 20.7957L24.787 16.4628C24.929 16.3284 25 16.1941 25 15.9926C25 15.8246 24.929 15.6567 24.787 15.5223L20.2071 11.1894C19.9941 10.9878 19.7456 10.9543 19.4615 11.055C19.1775 11.1894 19 11.3909 19 11.6596Z" fill="white"/>
</svg>
